# xmcd CD database file
#
# Track frame offsets:
#	150
#	33427
#	68823
#	109982
#	127091
#	162328
#	204789
#	239155
#
# Disc length: 3738 seconds
#
# Revision: 1
# Processed by: cddbd v1.5.2PL0 Copyright (c) Steve Scherf et al.
# Submitted via: CDex 1.70beta2
#
DISCID=720e9808
DTITLE=Various Artist - NPR Funniest Driveway Moments [CD-2)
DYEAR=1900
DGENRE=Country
TTITLE0=Mel Brooks-- A Lifetime Of Laughter
TTITLE1=Carl Reiner Takes On The Past
TTITLE2=Phyllis Diller-- Still Out For A Laugh
TTITLE3=How Richard Pryor Changed Comedy
TTITLE4=Demetri Martin-- Comedy And The Family
TTITLE5=Billy Connolly-- Onstage Solo, But Not Lonely
TTITLE6=Steve Martin-- Born Standing Up
TTITLE7=Laughing Along With Lily Tomlin
EXTD=
EXTT0=
EXTT1=
EXTT2=
EXTT3=
EXTT4=
EXTT5=
EXTT6=
EXTT7=
PLAYORDER=
